# xmcd
#
# Track frame offsets: 
#        150
#        4750
#        14690
#        26625
#        38715
#        48813
#        58739
#        70638
#        83100
#        93304
#        103358
#        113926
#        124451
#        135189
#        146268
#        157001
#        166476
#        176851
#        189915
#        202474
#        211664
#
# Disc length: 2989 seconds
#
# Revision: 2
# Processed by: cddbd v1.5.2PL0 Copyright (c) Steve Scherf et al.
# Submitted via: ExactAudioCopy v0.99pb5
#
DISCID=280bab15
DTITLE=Various Artist - Country Hits [CD 2)
DYEAR=1900
DGENRE=country
TTITLE0=E. T. Rouse - Orange Blossom Special
TTITLE1=J. Hershey, D. Swander - Deep In The Heart Of Texas
TTITLE2=G. Rodgers, V. Wheeler - Jackson
TTITLE3=D. Gibson - Oh, Lonesome Me
TTITLE4=J. Livingston, R. Evans - Bonanza
TTITLE5=T. Astor, K. Löhmer - Von den blauen Bergen kommen wir
TTITLE6=R. Orbison, Melson - Blue Bayou
TTITLE7=T. Astor, K. Löhmer - On Top Of Old Smokey
TTITLE8=W. Holyfield - Some Broken Hearts Never Mend
TTITLE9=B. Wills - San Antonio Rose
TTITLE10=C.Bruhn, U. Blecher - 7000 Rinder
TTITLE11=Ramos, Auerbach - Auf meiner Ranch bin ich König
TTITLE12=S. Jons, E. Verch - Geisterreiter
TTITLE13=J. Carter, M. Kilgore - Ring Of Fire
TTITLE14=M. Robins - El Paso
TTITLE15=J. Livingstone, R. Freed, K. Freitz - Adios Amigo
TTITLE16=King, Stewart - Tennessee Waltz
TTITLE17=C. Putman - Green, Green Gras Of Home
TTITLE18=T. Astor, K. Löhmer - Tom Dooley
TTITLE19=T. Astor, K. Löhmer - The Yellow Rose Of Texas
TTITLE20=Danoff, Nivert, Denver - Take Me Home Country Roads
EXTD=Magic
EXTT0=
EXTT1=
EXTT2=
EXTT3=
EXTT4=
EXTT5=
EXTT6=
EXTT7=
EXTT8=
EXTT9=
EXTT10=
EXTT11=
EXTT12=
EXTT13=
EXTT14=
EXTT15=
EXTT16=
EXTT17=
EXTT18=
EXTT19=
EXTT20=
PLAYORDER=
